<svg width="32" height="32" xmlns="http://www.w3.org/2000/svg"><path fill="none" d="M-1-1h11.21v11.21H-1z"/><g><path fill="#fff6d7" d="M1.356 1.102l15.2-.062 2.51 6.518 8.32 2.67.07 20.483-26.03-.06L1.357 1.1z"/><path fill="#f1ce59" d="M16.967 1.202l1.804 6.42 9.334 2.23L23.79 5l-6.823-3.8z"/><path fill="#c39427" d="M23.567 4.155c-2.494-1.96-5.185-3.53-7.39-3.745-.12-.014-.246-.022-.377-.024H1.276c-.23 0-.46.072-.623.208C.49.726.395.91.395 1.1v29.8c0 .188.09.367.258.504.167.134.387.207.623.207H27.54c.23 0 .453-.07.62-.206.168-.135.26-.315.26-.504V11.07c-.05-2.302-2.28-4.812-4.853-6.915zm-1.24 1.01c1.15.91 2.186 1.94 2.96 2.932-.67-.214-1.373-.373-2.032-.5-1.452-.263-2.872-.37-3.754-.412.005-.154.007-.328.007-.516 0-1.007-.08-2.44-.51-3.705-.004-.01-.007-.023-.012-.034 1.092.584 2.282 1.358 3.342 2.234zm4.33 25.02H2.153V1.808H15.8c.596-.028 1.11.448 1.503 1.536.357 1.036.447 2.386.446 3.323.002.685-.04 1.146-.04 1.146l-.07.754.938.008c.005 0 2.168.02 4.29.41 2.04.358 3.635 1.068 3.784 1.872.005.072.007.144.005.21v19.114z"/><path fill="#a98109" d="M18.485 9.373H10.33l-.51 1.02h9.175l-.51-1.02zm2.038 3.058H8.293l-.51 1.02h13.25l-.51-1.02zm-1.02-1.528H9.314l-.51 1.02h11.21l-.51-1.02zm-11.72 11.72h13.25V13.96H7.783v8.663zm3.567-5.604h1.02v1.02c0 .305.305.508.713.508h2.7c.41 0 .714-.203.714-.51V17.02h1.02v1.02s-.714 1.528-1.63 1.528H13.03c-.917 0-1.63-.663-1.63-1.53s-.052-1.018-.052-1.018z" clip-rule="evenodd" fill-rule="evenodd"/></g></svg>