<svg width="32" height="32" xmlns="http://www.w3.org/2000/svg"><path fill="none" d="M-1-1h6v6h-6z"/><g><path fill="#fff6d7" d="M1.32 1.102l15.2-.062 2.51 6.518 8.32 2.67.07 20.483-26.03-.06L1.32 1.1z"/><path fill="#f1ce59" d="M16.967 1.202l1.804 6.42 9.334 2.23L23.79 5l-6.823-3.8z"/><path fill="#c39427" d="M23.567 4.155c-2.494-1.96-5.185-3.53-7.39-3.745-.12-.014-.246-.022-.377-.024H1.276c-.23 0-.46.073-.623.208C.49.726.395.91.395 1.1v29.8c0 .188.09.367.258.504.167.134.387.207.623.207H27.54c.23 0 .453-.07.62-.206.168-.135.26-.315.26-.504V11.07c-.05-2.302-2.28-4.812-4.853-6.915zm-1.24 1.01c1.15.91 2.186 1.94 2.96 2.932-.67-.214-1.373-.373-2.032-.5-1.452-.263-2.872-.37-3.754-.412.005-.154.007-.328.007-.516 0-1.007-.08-2.44-.51-3.705-.004-.01-.007-.023-.012-.034 1.092.584 2.282 1.358 3.342 2.234zm4.33 25.02H2.153V1.808H15.8c.596-.028 1.11.448 1.503 1.536.357 1.036.447 2.386.446 3.323.002.685-.04 1.146-.04 1.146l-.07.754.938.008c.005 0 2.168.02 4.29.41 2.04.358 3.635 1.068 3.784 1.872.005.072.007.144.005.21v19.114z"/><path fill="#ff3535" d="M18.418 9.724q-.61-.774-1.577-1.16-.957-.388-2.01-.388-.67 0-1.336.184-.658.174-1.2.542-.532.368-.86.93-.33.56-.33 1.315 0 1.344 1.093 2.05l-.648.417-.543.57q-.24.32-.387.726-.145.406-.145.89 0 .63.242 1.074.242.455.62.784.386.328.89.57l2.167.88.84.426q.35.223.514.503.174.28.174.668 0 .32-.164.57-.165.243-.416.397l-.552.242-.58.068q-.668 0-1.306-.32-.65-.31-.978-.938l-1.78 1.055q.33.53.803.908.473.378 1.015.63.542.24 1.122.376.59.126 1.142.126.705 0 1.402-.203.706-.193 1.258-.6.56-.406.91-1.016.347-.618.347-1.42 0-.64-.203-1.17-.203-.514-.735-.91.618-.31 1.034-.93.426-.62.426-1.373 0-.668-.27-1.16-.272-.495-.717-.872-.435-.377-.987-.658l-2.767-1.335q-.31-.222-.494-.474-.174-.26-.174-.61 0-.31.154-.522.145-.232.378-.368l.522-.222.56-.068q.572 0 1.143.31.56.29.918.822l1.48-1.316m-4.857 4.422l2.12.986.465.34.338.425q.145.242.145.58 0 .358-.212.706-.213.34-.57.523l-2.38-1.016-.466-.31-.338-.406q-.136-.25-.136-.57 0-.523.31-.804.31-.27.725-.454z" stroke-width=".5" stroke="#d91800"/></g></svg>